<?xml version="1.0" encoding="utf-8" standalone="yes"?>
<!DOCTYPE svg PUBLIC "-//W3C//DTD SVG 1.1//EN" "http://www.w3.org/Graphics/SVG/1.1/DTD/svg11.dtd">
<svg style="fill:none;stroke:none;fill-rule:evenodd;clip-rule:evenodd;stroke-linecap:round;stroke-linejoin:round;stroke-miterlimit:1.5;" version="1.1" xmlns="http://www.w3.org/2000/svg" xmlns:xlink="http://www.w3.org/1999/xlink" width="748" height="588" viewBox="0 0 748 588"><style class="text-font-style fontImports" data-font-family="Georgia"></style><style class="text-font-style fontImports" data-font-family="Merriweather">@import url(https://fonts.googleapis.com/css2?family=Merriweather:wght@400;700&amp;amp;display=block);</style><g id="items" style="isolation: isolate"><g id="blend" style="mix-blend-mode: normal"><g id="g-root-sy_1_bar_1hiuijz1vs239i-fill" data-item-order="-174626" transform="translate(131.31243896484375, 115.99993896484375)"><g id="sy_1_bar_1hiuijz1vs239i-fill-merged" stroke="none" fill="#3e4e69" fill-opacity="1"><g><path d="M10 10 H442 V58 H10 V10"></path></g></g></g><g id="g-root-sy_1_bar_1hiuijz1vs239i-stroke" data-item-order="-174626" transform="translate(131.31243896484375, 115.99993896484375)"><g id="sy_1_bar_1hiuijz1vs239i-stroke" fill="none" stroke-linecap="round" stroke-linejoin="round" stroke-miterlimit="4" stroke="#4f91fc" stroke-width="2" stroke-opacity="1"><g><path d="M 10.000031 10L 442.000031 10L 442.000031 58L 10.000031 58Z"></path></g></g></g><g id="g-root-sy_2_bar_147e06n1vs24uf-fill" data-item-order="-174622" transform="translate(131.3125, 181.99993896484375)"><g id="sy_2_bar_147e06n1vs24uf-fill-merged" stroke="none" fill="#344e57" fill-opacity="1"><g><path d="M10 10 H438.6 V58 H10 V10"></path></g></g></g><g id="g-root-sy_2_bar_147e06n1vs24uf-stroke" data-item-order="-174622" transform="translate(131.3125, 181.99993896484375)"><g id="sy_2_bar_147e06n1vs24uf-stroke" fill="none" stroke-linecap="round" stroke-linejoin="round" stroke-miterlimit="4" stroke="#1ac3fb" stroke-width="2" stroke-opacity="1"><g><path d="M 9.999969 10L 438.599976 10L 438.599976 58L 9.999969 58Z"></path></g></g></g><g id="g-root-sy_3_bar_zs6z5b1vs22gw-fill" data-item-order="-174618" transform="translate(131.3125, 248)"><g id="sy_3_bar_zs6z5b1vs22gw-fill-merged" stroke="none" fill="#3b5649" fill-opacity="1"><g><path d="M10 10 H319.236 V58 H10 V10"></path></g></g></g><g id="g-root-sy_3_bar_zs6z5b1vs22gw-stroke" data-item-order="-174618" transform="translate(131.3125, 248)"><g id="sy_3_bar_zs6z5b1vs22gw-stroke" fill="none" stroke-linecap="round" stroke-linejoin="round" stroke-miterlimit="4" stroke="#43dd93" stroke-width="2" stroke-opacity="1"><g><path d="M 9.999969 10L 319.235962 10L 319.235962 58L 9.999969 58Z"></path></g></g></g><g id="g-root-sy_4_bar_mgqgrz1vs241t-fill" data-item-order="-174614" transform="translate(131.31243896484375, 314)"><g id="sy_4_bar_mgqgrz1vs241t-fill-merged" stroke="none" fill="#4b533a" fill-opacity="1"><g><path d="M10 10 H258.129 V58 H10 V10"></path></g></g></g><g id="g-root-sy_4_bar_mgqgrz1vs241t-stroke" data-item-order="-174614" transform="translate(131.31243896484375, 314)"><g id="sy_4_bar_mgqgrz1vs241t-stroke" fill="none" stroke-linecap="round" stroke-linejoin="round" stroke-miterlimit="4" stroke="#a6da37" stroke-width="2" stroke-opacity="1"><g><path d="M 10.000031 10L 258.129028 10L 258.129028 58L 10.000031 58Z"></path></g></g></g><g id="g-root-sy_5_bar_8vwu3z1vs3h1e-fill" data-item-order="-174610" transform="translate(131.31246948242188, 380)"><g id="sy_5_bar_8vwu3z1vs3h1e-fill-merged" stroke="none" fill="#54502f" fill-opacity="1"><g><path d="M10 10 H125.913 V58 H10 V10"></path></g></g></g><g id="g-root-sy_5_bar_8vwu3z1vs3h1e-stroke" data-item-order="-174610" transform="translate(131.31246948242188, 380)"><g id="sy_5_bar_8vwu3z1vs3h1e-stroke" fill="none" stroke-linecap="round" stroke-linejoin="round" stroke-miterlimit="4" stroke="#ffe711" stroke-width="2" stroke-opacity="1"><g><path d="M 10 10L 125.913002 10L 125.913002 58L 10 58Z"></path></g></g></g><g id="g-root-sy_-1_hAxis_9tv31vs3hu3-fill" data-item-order="-174561" transform="translate(131.31246948242188, 68)"></g><g id="g-root-sy_-1_hAxis_9tv31vs3hu3-stroke" data-item-order="-174561" transform="translate(131.31246948242188, 68)"><g id="sy_-1_hAxis_9tv31vs3hu3-stroke" fill="none" stroke-linecap="round" stroke-linejoin="round" stroke-miterlimit="4" stroke="#f4f4f4" stroke-width="2" stroke-opacity="1"><g><path d="M 10 387.999939L 10 11.999939"></path><path d="M 16.5 17.999939L 10 11.499939L 3.5 17.999939" stroke-dasharray="none"></path></g></g></g><g id="g-root-sy_-1_vAxis_1ulkdpr1vs3if8-fill" data-item-order="-174557" transform="translate(131.31243896484375, 446)"></g><g id="g-root-sy_-1_vAxis_1ulkdpr1vs3if8-stroke" data-item-order="-174557" transform="translate(131.31243896484375, 446)"><g id="sy_-1_vAxis_1ulkdpr1vs3if8-stroke" fill="none" stroke-linecap="round" stroke-linejoin="round" stroke-miterlimit="4" stroke="#f4f4f4" stroke-width="2" stroke-opacity="1"><g><path d="M 10.000031 10L 470.000031 10"></path><path d="M 464.000031 16.5L 470.500031 10L 464.000031 3.5" stroke-dasharray="none"></path></g></g></g><g id="g-root-tx_borough_13z9u271vs3ifa-fill" data-item-order="0" transform="translate(87.8499755859375, 37.99993896484375)"><g id="tx_borough_13z9u271vs3ifa-fill-merged" stroke="none" fill="#ababab" fill-opacity="1"><g><text style="font: 20px Merriweather, serif; white-space: pre;" transform="translate(53.462493896484375, 22)" font-size="20px" font-family="Merriweather, serif"><tspan x="-41.46" y="12.8" dominant-baseline="ideographic">Borough</tspan></text></g></g></g><g id="g-root-tx_borough_13z9u271vs3ifa-stroke" data-item-order="0" transform="translate(87.8499755859375, 37.99993896484375)"></g><g id="g-root-tx_brooklyn_18i7pm71vs3ith-fill" data-item-order="0" transform="translate(32.34996032714844, 127.99993896484375)"><g id="tx_brooklyn_18i7pm71vs3ith-fill-merged" stroke="none" fill="#4e88e6" fill-opacity="1"><g><text style="font: 20px Merriweather, serif; white-space: pre;" transform="translate(102.96250915527344, 22)" font-size="20px" font-family="Merriweather, serif"><tspan x="-90.96" y="12.8" dominant-baseline="ideographic">Brooklyn</tspan></text></g></g></g><g id="g-root-tx_brooklyn_18i7pm71vs3ith-stroke" data-item-order="0" transform="translate(32.34996032714844, 127.99993896484375)"></g><g id="g-root-tx_8639_8x5sa71vs3j7k-fill" data-item-order="0" transform="translate(513.8374633789062, 129.99993896484375)"><g id="tx_8639_8x5sa71vs3j7k-fill-merged" stroke="none" fill="#4f91fc" fill-opacity="1"><g><text style="font: 17.3px Merriweather, serif; white-space: pre;" transform="translate(53.4749755859375, 20)" font-size="17.3px" font-family="Merriweather, serif"><tspan x="-41.48" y="10.8" dominant-baseline="ideographic">8639</tspan></text></g></g></g><g id="g-root-tx_8639_8x5sa71vs3j7k-stroke" data-item-order="0" transform="translate(513.8374633789062, 129.99993896484375)"></g><g id="g-root-tx_queens_v7dobz1vs3h8m-fill" data-item-order="0" transform="translate(49.72499084472656, 193.99993896484375)"><g id="tx_queens_v7dobz1vs3h8m-fill-merged" stroke="none" fill="#1fa9d7" fill-opacity="1"><g><text style="font: 20px Merriweather, serif; white-space: pre;" transform="translate(85.58747863769531, 22)" font-size="20px" font-family="Merriweather, serif"><tspan x="-73.59" y="12.8" dominant-baseline="ideographic">Queens</tspan></text></g></g></g><g id="g-root-tx_queens_v7dobz1vs3h8m-stroke" data-item-order="0" transform="translate(49.72499084472656, 193.99993896484375)"></g><g id="g-root-tx_8571_1lrssq71vs3i89-fill" data-item-order="0" transform="translate(513.625, 195.99993896484375)"><g id="tx_8571_1lrssq71vs3i89-fill-merged" stroke="none" fill="#1ac3fb" fill-opacity="1"><g><text style="font: 17.3px Merriweather, serif; white-space: pre;" transform="translate(50.2874755859375, 20)" font-size="17.3px" font-family="Merriweather, serif"><tspan x="-38.29" y="10.8" dominant-baseline="ideographic">8571</tspan></text></g></g></g><g id="g-root-tx_8571_1lrssq71vs3i89-stroke" data-item-order="0" transform="translate(513.625, 195.99993896484375)"></g><g id="g-root-tx_bronx_4l34of1vs3h8n-fill" data-item-order="0" transform="translate(62.699981689453125, 260)"><g id="tx_bronx_4l34of1vs3h8n-fill-merged" stroke="none" fill="#3bc482" fill-opacity="1"><g><text style="font: 20px Merriweather, serif; white-space: pre;" transform="translate(72.61248779296875, 22)" font-size="20px" font-family="Merriweather, serif"><tspan x="-60.61" y="12.8" dominant-baseline="ideographic">Bronx</tspan></text></g></g></g><g id="g-root-tx_bronx_4l34of1vs3h8n-stroke" data-item-order="0" transform="translate(62.699981689453125, 260)"></g><g id="g-root-tx_6184_qpoqy71vs3j0i-fill" data-item-order="0" transform="translate(393.0985107421875, 262)"><g id="tx_6184_qpoqy71vs3j0i-fill-merged" stroke="none" fill="#43dd93" fill-opacity="1"><g><text style="font: 17.3px Merriweather, serif; white-space: pre;" transform="translate(51.449951171875, 20)" font-size="17.3px" font-family="Merriweather, serif"><tspan x="-39.45" y="10.8" dominant-baseline="ideographic">6184</tspan></text></g></g></g><g id="g-root-tx_6184_qpoqy71vs3j0i-stroke" data-item-order="0" transform="translate(393.0985107421875, 262)"></g><g id="g-root-tx_manhatta_1qaqoa71vs3img-fill" data-item-order="0" transform="translate(13.999969482421875, 326)"><g id="tx_manhatta_1qaqoa71vs3img-fill-merged" stroke="none" fill="#91bb39" fill-opacity="1"><g><text style="font: 20px Merriweather, serif; white-space: pre;" transform="translate(121.3125, 22)" font-size="20px" font-family="Merriweather, serif"><tspan x="-109.31" y="12.8" dominant-baseline="ideographic">Manhattan</tspan></text></g></g></g><g id="g-root-tx_manhatta_1qaqoa71vs3img-stroke" data-item-order="0" transform="translate(13.999969482421875, 326)"></g><g id="g-root-tx_4962_deupnz1vs3hfn-fill" data-item-order="0" transform="translate(329.40399169921875, 328)"><g id="tx_4962_deupnz1vs3hfn-fill-merged" stroke="none" fill="#a6da37" fill-opacity="1"><g><text style="font: 17.3px Merriweather, serif; white-space: pre;" transform="translate(54.0374755859375, 20)" font-size="17.3px" font-family="Merriweather, serif"><tspan x="-42.04" y="10.8" dominant-baseline="ideographic">4962</tspan></text></g></g></g><g id="g-root-tx_4962_deupnz1vs3hfn-stroke" data-item-order="0" transform="translate(329.40399169921875, 328)"></g><g id="g-root-tx_statenis_18k34vj1vs3htt-fill" data-item-order="0" transform="translate(59.97499084472656, 380)"><g id="tx_statenis_18k34vj1vs3htt-fill-merged" stroke="none" fill="#efd80d" fill-opacity="1"><g><text style="font: 20px Merriweather, serif; white-space: pre;" transform="translate(75.33747863769531, 34)" font-size="20px" font-family="Merriweather, serif"><tspan x="-63.34" y="0.8" dominant-baseline="ideographic">Staten </tspan><tspan x="-61" y="24.8" dominant-baseline="ideographic">Island</tspan></text></g></g></g><g id="g-root-tx_statenis_18k34vj1vs3htt-stroke" data-item-order="0" transform="translate(59.97499084472656, 380)"></g><g id="g-root-tx_2318_1q8v90v1vs3jm4-fill" data-item-order="0" transform="translate(200.80047607421875, 394)"><g id="tx_2318_1q8v90v1vs3jm4-fill-merged" stroke="none" fill="#ffe711" fill-opacity="1"><g><text style="font: 17.3px Merriweather, serif; white-space: pre;" transform="translate(50.42498779296875, 20)" font-size="17.3px" font-family="Merriweather, serif"><tspan x="-38.43" y="10.8" dominant-baseline="ideographic">2318</tspan></text></g></g></g><g id="g-root-tx_2318_1q8v90v1vs3jm4-stroke" data-item-order="0" transform="translate(200.80047607421875, 394)"></g><g id="g-root-tx_numberof_hsssj31vs3hn3-fill" data-item-order="0" transform="translate(599.3124389648438, 422)"><g id="tx_numberof_hsssj31vs3hn3-fill-merged" stroke="none" fill="#ababab" fill-opacity="1"><g><text style="font: 20px Merriweather, serif; white-space: pre;" transform="translate(10, 34)" font-size="20px" font-family="Merriweather, serif"><tspan x="2" y="0.8" dominant-baseline="ideographic">Number of </tspan><tspan x="2" y="24.8" dominant-baseline="ideographic">Complaints</tspan></text></g></g></g><g id="g-root-tx_numberof_hsssj31vs3hn3-stroke" data-item-order="0" transform="translate(599.3124389648438, 422)"></g><g id="g-root-tx_streetli_1haqcfj1vs3gud-fill" data-item-order="0" transform="translate(183.043701171875, 470)"><g id="tx_streetli_1haqcfj1vs3gud-fill-merged" stroke="none" fill="#f4f4f4" fill-opacity="1"><g><text style="font: bold 25px Georgia, serif; white-space: pre;" transform="translate(186.26873779296875, 40)" font-weight="bold" font-size="25px" font-family="Georgia, serif"><tspan x="-174.27" y="-1.2" dominant-baseline="ideographic">Street Light Complaints by </tspan><tspan x="-111.13" y="28.8" dominant-baseline="ideographic">Borough in 2024</tspan></text></g></g></g><g id="g-root-tx_streetli_1haqcfj1vs3gud-stroke" data-item-order="0" transform="translate(183.043701171875, 470)"></g></g></g><path id="wzqaoan1uxxq8e" d="M65.283 12.757a.35.35 0 0 0 .584.157l5.203-5.141-6.183 3.523.396 1.461zm-2.216-11.7a.35.35 0 0 0-.522.305v3.111l3.276-1.868-2.754-1.548zm3.728 2.105l-4.25 2.421v2.445l6.391-3.644-2.141-1.222zm4.708 3.303a.35.35 0 0 0 0-.609l-1.592-.9-7.365 4.199v1.782a.35.35 0 0 0 .523.305l8.435-4.777z M44.542 2.513c0-.433.355-.783.792-.783s.792.35.792.783-.355.783-.792.783-.792-.35-.792-.783zm59.171 0c0-.433.355-.783.792-.783s.792.35.792.783-.355.783-.792.783-.792-.35-.792-.783zm-85.951 7.636h-1.27v-.487c-.276.201-.864.609-1.881.609-1.202 0-2.274-.794-2.137-2.078.118-1.106 1.153-1.584 1.848-1.727l2.17-.345c0-.539-.29-.956-1.064-1.006s-1.21.305-1.571 1.017l-1.124-.605c1.218-2.631 5.029-1.764 5.029.414v4.207zm-1.27-2.86c.006.396-.062 1.112-.819 1.59-.587.37-1.841.299-1.903-.395-.049-.555.461-.791.906-.898l1.816-.297zm72.662 2.86h-1.27v-.487c-.276.201-.864.609-1.881.609-1.202 0-2.274-.794-2.137-2.078.118-1.106 1.153-1.584 1.848-1.727l2.17-.345c0-.539-.29-.956-1.064-1.006s-1.21.305-1.571 1.017l-1.124-.605c1.218-2.631 5.029-1.764 5.029.414v4.207zm-1.27-2.86c.006.396-.062 1.112-.82 1.59-.587.37-1.841.299-1.903-.395-.049-.555.461-.791.906-.898l1.816-.297zM99.096 10.149H97.85v-8.45h1.246v4.895l2.68-2.559h1.738l-2.633 2.535 2.715 3.578h-1.556l-2.077-2.707-.867.844v1.863zm6.053-6.114h-1.255v6.113h1.255V4.035zm-59.2 0h-1.255v6.113h1.255V4.035zm5.584 6.113V1.697h1.255v2.695c.361-.346 1-.485 1.47-.485 1.452 0 2.477 1.082 2.457 2.448v3.792h-1.27v-3.68c0-.408-.214-1.339-1.315-1.339-.968 0-1.342.756-1.342 1.339v3.681h-1.255zm-4.76-4.894V4.039h.621a.45.45 0 0 0 .45-.45v-.855h1.251v1.305h1.309v1.215h-1.309v3.109c0 .293.105.664.648.664.365 0 .531-.035.736-.07v1.137s-.361.113-.857.113c-1.398 0-1.777-1.051-1.777-1.788V5.254h-1.071zM36.528 4.039h-1.394l2.191 6.106h1.125l1.234-3.918 1.238 3.918h1.129l2.188-6.106h-1.383l-1.359 3.93-1.256-3.93h-1.124l-1.242 3.957-1.348-3.957zM26.212 7.141c-.02 1.566 1.187 3.129 3.223 3.129 1.566 0 2.383-.918 2.734-1.719L31.172 8c-.315.399-.801 1.094-1.738 1.094-1.145 0-1.825-.781-1.891-1.52h4.625c.074-.284.148-.995-.03-1.559-.336-1.064-1.221-2.102-2.839-2.102s-3.088 1.152-3.088 3.227zm1.363-.75h3.348c-.055-.43-.566-1.301-1.623-1.301a1.79 1.79 0 0 0-1.725 1.301zm-8.758.75c.038 1.758 1.277 3.133 3.145 3.133 1.074 0 1.723-.477 1.961-.672v.547h1.242V1.703h-1.258v2.888c-.414-.36-1.062-.68-1.93-.68-1.91 0-3.198 1.473-3.16 3.23zm1.309-.08c0 1.119.723 1.978 1.836 1.978a1.88 1.88 0 0 0 1.94-1.904c0-1.371-1.011-1.99-1.972-1.99s-1.805.798-1.805 1.916zm76.683-.028C96.771 5.275 95.532 3.9 93.664 3.9c-1.074 0-1.723.477-1.961.672v-.547h-1.242v8.22h1.258V9.583c.414.36 1.063.68 1.93.68 1.91 0 3.198-1.473 3.16-3.23zm-1.309.08c0-1.119-.723-1.978-1.836-1.978a1.88 1.88 0 0 0-1.94 1.904c0 1.371 1.011 1.99 1.972 1.99S95.5 8.231 95.5 7.113zM106.441 10.173V4.036h1.254v.382c.361-.346 1-.485 1.47-.485 1.452 0 2.477 1.082 2.457 2.448v3.792h-1.27V6.492c0-.408-.214-1.339-1.315-1.339-.969 0-1.342.756-1.342 1.339v3.681h-1.254zm-30.383-.021V1.824h1.084l4.215 5.777V1.824h1.32v8.328h-1.094l-4.207-5.796v5.796h-1.319zM5.24 10.149H4V2.377h1.014l2.664 3.597 2.654-3.592h1.03v7.766h-1.256V4.762L7.678 8.068 5.24 4.742v5.407z" transform="translate(611.8729858398438, 554.4105224609375)" fill="#ababab88" stroke="none"></path></svg>