<?xml version="1.0" encoding="utf-8" standalone="yes"?>
<!DOCTYPE svg PUBLIC "-//W3C//DTD SVG 1.1//EN" "http://www.w3.org/Graphics/SVG/1.1/DTD/svg11.dtd">
<svg style="fill:none;stroke:none;fill-rule:evenodd;clip-rule:evenodd;stroke-linecap:round;stroke-linejoin:round;stroke-miterlimit:1.5;" version="1.1" xmlns="http://www.w3.org/2000/svg" xmlns:xlink="http://www.w3.org/1999/xlink" width="973" height="548" viewBox="0 0 973 548"><style class="text-font-style fontImports" data-font-family="Roboto">@import url(https://fonts.googleapis.com/css2?family=Roboto:wght@400;700&amp;amp;display=block);</style><g id="items" style="isolation: isolate"><g id="blend" style="mix-blend-mode: normal"><g id="g-root-sy_0_cu_bar_back_1cyn5vz1wly49a-fill" data-item-order="-401290" transform="translate(153.0339813232422, 124.9046630859375)"><g id="sy_0_cu_bar_back_1cyn5vz1wly49a-fill-merged" stroke="none" fill="#f4f4f4" fill-opacity="1"><g><path d="M59.536 10C63.528 38.699 53.832 67.61 33.343 88.098L10 64.755C23.172 51.584 29.405 32.998 26.838 14.548L59.536 10"></path></g></g></g><g id="g-root-sy_0_cu_bar_back_1cyn5vz1wly49a-stroke" data-item-order="-401290" transform="translate(153.0339813232422, 124.9046630859375)"><g id="sy_0_cu_bar_back_1cyn5vz1wly49a-stroke" fill="none" stroke-linecap="round" stroke-linejoin="round" stroke-miterlimit="4" stroke="#2c2c2c" stroke-width="1" stroke-opacity="0.9"><g><path d="M 59.535763 10.000005C 63.528137 38.699165 53.832214 67.609741 33.343376 88.09848L 9.999995 64.755104C 23.171539 51.583519 29.404531 32.997765 26.837645 14.548085L 59.535763 10.000005Z"></path></g></g></g><g id="g-root-sy_0_cu_needle_mccm8f1wly49b-fill" data-item-order="-401288" transform="translate(100.55984497070312, 127.19427490234375)"><g id="sy_0_cu_needle_mccm8f1wly49b-fill-merged" stroke="none" fill="#f4f4f4" fill-opacity="1"><g><path d="M21.896 30.801C16.177 31.597 10.897 27.606 10.101 21.887C9.305 16.169 13.296 10.888 19.015 10.092C19.36 10.044 19.704 10.014 20.046 10L62.682 12.392C65.092 12.527 65.558 15.882 63.277 16.67L22.913 30.609C22.581 30.689 22.241 30.753 21.896 30.801 M19.848 16.05C22.275 15.713 24.517 17.407 24.855 19.835C25.193 22.263 23.498 24.504 21.071 24.842C18.643 25.18 16.401 23.486 16.063 21.058C15.725 18.63 17.42 16.388 19.848 16.05"></path></g></g></g><g id="g-root-sy_0_cu_needle_mccm8f1wly49b-stroke" data-item-order="-401288" transform="translate(100.55984497070312, 127.19427490234375)"></g><g id="g-root-sy_0_cu_bar_back_1_dhc32n1wly2o0-fill" data-item-order="-401286" transform="translate(399.52978515625, 124.9046630859375)"><g id="sy_0_cu_bar_back_1_dhc32n1wly2o0-fill-merged" stroke="none" fill="#f4f4f4" fill-opacity="1"><g><path d="M59.536 10C63.528 38.699 53.832 67.61 33.343 88.098L10 64.755C23.172 51.584 29.405 32.998 26.838 14.548L59.536 10"></path></g></g></g><g id="g-root-sy_0_cu_bar_back_1_dhc32n1wly2o0-stroke" data-item-order="-401286" transform="translate(399.52978515625, 124.9046630859375)"><g id="sy_0_cu_bar_back_1_dhc32n1wly2o0-stroke" fill="none" stroke-linecap="round" stroke-linejoin="round" stroke-miterlimit="4" stroke="#2c2c2c" stroke-width="1" stroke-opacity="0.9"><g><path d="M 59.535755 10.000005C 63.52813 38.699165 53.832188 67.609741 33.343369 88.09848L 9.999979 64.755104C 23.171532 51.583519 29.404524 32.997765 26.837654 14.548085L 59.535755 10.000005Z"></path></g></g></g><g id="g-root-sy_0_cu_needle_1_4lp2tr1wly3gp-fill" data-item-order="-401284" transform="translate(347.0556945800781, 127.19427490234375)"><g id="sy_0_cu_needle_1_4lp2tr1wly3gp-fill-merged" stroke="none" fill="#f4f4f4" fill-opacity="1"><g><path d="M21.896 30.801C16.177 31.597 10.897 27.606 10.101 21.887C9.305 16.169 13.296 10.888 19.015 10.092C19.36 10.044 19.704 10.014 20.046 10L62.682 12.392C65.092 12.527 65.558 15.882 63.277 16.67L22.913 30.609C22.581 30.689 22.241 30.753 21.896 30.801 M19.847 16.05C22.275 15.713 24.517 17.407 24.855 19.835C25.193 22.263 23.498 24.504 21.071 24.842C18.643 25.18 16.401 23.486 16.063 21.058C15.725 18.63 17.42 16.388 19.847 16.05"></path></g></g></g><g id="g-root-sy_0_cu_needle_1_4lp2tr1wly3gp-stroke" data-item-order="-401284" transform="translate(347.0556945800781, 127.19427490234375)"></g><g id="g-root-sy_0_cu_bar_back_2_18kp30v1wly41u-fill" data-item-order="-401282" transform="translate(646.0257568359375, 115.92071533203125)"><g id="sy_0_cu_bar_back_2_18kp30v1wly41u-fill-merged" stroke="none" fill="#f4f4f4" fill-opacity="1"><g><path d="M57.829 10C65.398 41.311 56.121 74.304 33.343 97.082L10 73.739C24.643 59.096 30.607 37.886 25.74 17.757L57.829 10"></path></g></g></g><g id="g-root-sy_0_cu_bar_back_2_18kp30v1wly41u-stroke" data-item-order="-401282" transform="translate(646.0257568359375, 115.92071533203125)"><g id="sy_0_cu_bar_back_2_18kp30v1wly41u-stroke" fill="none" stroke-linecap="round" stroke-linejoin="round" stroke-miterlimit="4" stroke="#2c2c2c" stroke-width="1" stroke-opacity="0.9"><g><path d="M 57.82896 10.000005C 65.3983 41.311012 56.121296 74.304352 33.343296 97.082367L 9.999974 73.738991C 24.64304 59.09581 30.606735 37.885555 25.740444 17.756926L 57.82896 10.000005Z"></path></g></g></g><g id="g-root-sy_0_cu_needle_2_v9v1qn1wly2gz-fill" data-item-order="-401280" transform="translate(593.55029296875, 125.45123291015625)"><g id="sy_0_cu_needle_2_v9v1qn1wly2gz-fill-merged" stroke="none" fill="#f4f4f4" fill-opacity="1"><g><path d="M22.913 32.351C17.301 33.708 11.652 30.258 10.295 24.646C8.938 19.034 12.388 13.385 18 12.028C18.339 11.946 18.678 11.882 19.017 11.835L61.681 10.002C64.092 9.899 64.888 13.191 62.696 14.2L23.906 32.059C23.583 32.171 23.252 32.269 22.913 32.351 M19.417 17.875C21.8 17.299 24.198 18.763 24.774 21.146C25.35 23.529 23.885 25.927 21.503 26.503C19.12 27.079 16.722 25.614 16.146 23.232C15.57 20.849 17.035 18.451 19.417 17.875"></path></g></g></g><g id="g-root-sy_0_cu_needle_2_v9v1qn1wly2gz-stroke" data-item-order="-401280" transform="translate(593.55029296875, 125.45123291015625)"></g><g id="g-root-sy_0_cu_bar_back_3_hyejdb1wly41w-fill" data-item-order="-401278" transform="translate(892.521484375, 107.56195068359375)"><g id="sy_0_cu_bar_back_3_hyejdb1wly41w-fill-merged" stroke="none" fill="#f4f4f4" fill-opacity="1"><g><path d="M55.386 10C66.884 43.412 58.329 80.456 33.343 105.441L10 82.098C26.062 66.035 31.562 42.222 24.17 20.742L55.386 10"></path></g></g></g><g id="g-root-sy_0_cu_bar_back_3_hyejdb1wly41w-stroke" data-item-order="-401278" transform="translate(892.521484375, 107.56195068359375)"><g id="sy_0_cu_bar_back_3_hyejdb1wly41w-stroke" fill="none" stroke-linecap="round" stroke-linejoin="round" stroke-miterlimit="4" stroke="#2c2c2c" stroke-width="1" stroke-opacity="0.9"><g><path d="M 55.386028 9.999995C 66.884369 43.411839 58.328918 80.455505 33.343349 105.441208L 10.000028 82.097832C 26.062218 66.035492 31.562141 42.221512 24.170185 20.742373L 55.386028 9.999995Z"></path></g></g></g><g id="g-root-sy_0_cu_needle_3_4nki331wly2h1-fill" data-item-order="-401276" transform="translate(840.0458984375, 121.6044921875)"><g id="sy_0_cu_needle_3_4nki331wly2h1-fill-merged" stroke="none" fill="#f4f4f4" fill-opacity="1"><g><path d="M23.859 35.922C18.399 37.8 12.451 34.898 10.572 29.438C8.693 23.979 11.596 18.03 17.055 16.151C17.385 16.038 17.717 15.942 18.049 15.863L60.352 10.024C62.742 9.694 63.844 12.897 61.757 14.108L24.82 35.537C24.509 35.68 24.189 35.808 23.859 35.922 M19.016 21.839C21.334 21.041 23.86 22.273 24.657 24.591C25.455 26.909 24.222 29.434 21.905 30.232C19.587 31.03 17.061 29.797 16.264 27.48C15.466 25.162 16.698 22.636 19.016 21.839"></path></g></g></g><g id="g-root-sy_0_cu_needle_3_4nki331wly2h1-stroke" data-item-order="-401276" transform="translate(840.0458984375, 121.6044921875)"></g><g id="g-root-sy_0_cu_bar_back_4_1ut1jtb1wly32m-fill" data-item-order="-401274" transform="translate(153.03392028808594, 338.67926025390625)"><g id="sy_0_cu_bar_back_4_1ut1jtb1wly32m-fill-merged" stroke="none" fill="#f4f4f4" fill-opacity="1"><g><path d="M35.563 10C69.544 46.415 68.563 103.207 33.343 138.427L10 115.083C32.641 92.442 33.272 55.932 11.426 32.522L35.563 10"></path></g></g></g><g id="g-root-sy_0_cu_bar_back_4_1ut1jtb1wly32m-stroke" data-item-order="-401274" transform="translate(153.03392028808594, 338.67926025390625)"><g id="sy_0_cu_bar_back_4_1ut1jtb1wly32m-stroke" fill="none" stroke-linecap="round" stroke-linejoin="round" stroke-miterlimit="4" stroke="#2c2c2c" stroke-width="1" stroke-opacity="0.9"><g><path d="M 35.562954 10.000012C 69.544304 46.415382 68.56279 103.207138 33.343391 138.426544L 10.00001 115.083153C 32.641354 92.441833 33.27203 55.932262 11.42617 32.522449L 35.562954 10.000012Z"></path></g></g></g><g id="g-root-sy_0_cu_needle_4_1hi7ij31wly1hr-fill" data-item-order="-401272" transform="translate(100.56111145019531, 370.52325439453125)"><g id="sy_0_cu_needle_4_1hi7ij31wly1hr-fill-merged" stroke="none" fill="#f4f4f4" fill-opacity="1"><g><path d="M27.586 48.864C23.365 52.803 16.75 52.574 12.811 48.353C8.872 44.132 9.101 37.516 13.322 33.577C13.577 33.339 13.841 33.116 14.112 32.909L50.37 10.35C52.42 9.075 54.73 11.551 53.317 13.507L28.308 48.121C28.082 48.378 27.841 48.626 27.586 48.864 M17.429 37.973C19.221 36.301 22.029 36.398 23.702 38.19C25.374 39.982 25.277 42.79 23.485 44.463C21.693 46.135 18.884 46.038 17.212 44.246C15.54 42.454 15.637 39.645 17.429 37.973"></path></g></g></g><g id="g-root-sy_0_cu_needle_4_1hi7ij31wly1hr-stroke" data-item-order="-401272" transform="translate(100.56111145019531, 370.52325439453125)"></g><g id="g-root-sy_1_gauge-unfilled-1_1d2e0en1wly2a0-fill" data-item-order="-401268" transform="translate(18.57703399658203, 45.2001953125)"><g id="sy_1_gauge-unfilled-1_1d2e0en1wly2a0-fill-merged" stroke="none" fill="#98bfff" fill-opacity="1"><g><path d="M37.076 167.803C8.608 139.335 1.84 95.715 20.343 59.959C38.846 24.203 78.363 4.535 118.045 11.332C157.727 18.129 188.445 49.829 193.993 89.704L161.295 94.253C157.728 68.618 137.98 48.241 112.471 43.871C86.961 39.502 61.557 52.146 49.663 75.132C37.768 98.118 42.119 126.159 60.419 144.46L37.076 167.803"></path></g></g></g><g id="g-root-sy_1_gauge-unfilled-1_1d2e0en1wly2a0-stroke" data-item-order="-401268" transform="translate(18.57703399658203, 45.2001953125)"><g id="sy_1_gauge-unfilled-1_1d2e0en1wly2a0-stroke" fill="none" stroke-linecap="round" stroke-linejoin="round" stroke-miterlimit="4" stroke="#2c2c2c" stroke-width="1" stroke-opacity="0.9"><g><path d="M 37.076057 167.802963C 8.608215 139.334869 1.840133 95.715309 20.342836 59.959183C 38.845543 24.203058 78.363083 4.534909 118.044899 11.332194C 157.72673 18.12948 188.445313 49.828705 193.992676 89.704483L 161.294556 94.252548C 157.727905 68.618393 137.980118 48.240814 112.47052 43.871441C 86.96093 39.502068 61.557106 52.145924 49.66264 75.131844C 37.768173 98.11776 42.118961 126.158661 60.419437 144.459579L 37.076057 167.802963Z"></path></g></g></g><g id="g-root-sy_2_gauge-unfilled-2_18mkia71wly329-fill" data-item-order="-401264" transform="translate(265.0729064941406, 45.2001953125)"><g id="sy_2_gauge-unfilled-2_18mkia71wly329-fill-merged" stroke="none" fill="#619dff" fill-opacity="1"><g><path d="M37.076 167.803C8.608 139.335 1.84 95.715 20.343 59.959C38.846 24.203 78.363 4.535 118.045 11.332C157.727 18.129 188.445 49.829 193.993 89.704L161.295 94.253C157.728 68.618 137.98 48.241 112.471 43.871C86.961 39.502 61.557 52.146 49.663 75.132C37.768 98.118 42.119 126.159 60.419 144.46L37.076 167.803"></path></g></g></g><g id="g-root-sy_2_gauge-unfilled-2_18mkia71wly329-stroke" data-item-order="-401264" transform="translate(265.0729064941406, 45.2001953125)"><g id="sy_2_gauge-unfilled-2_18mkia71wly329-stroke" fill="none" stroke-linecap="round" stroke-linejoin="round" stroke-miterlimit="4" stroke="#2c2c2c" stroke-width="1" stroke-opacity="0.9"><g><path d="M 37.07605 167.802963C 8.608208 139.334869 1.840125 95.715309 20.342829 59.959183C 38.845535 24.203058 78.363075 4.534909 118.044891 11.332194C 157.726715 18.12948 188.445313 49.828705 193.992661 89.704483L 161.294556 94.252548C 157.72789 68.618393 137.980103 48.240814 112.470512 43.871441C 86.960922 39.502068 61.557098 52.145924 49.662632 75.131844C 37.768166 98.11776 42.118954 126.158661 60.41943 144.459579L 37.07605 167.802963Z"></path></g></g></g><g id="g-root-sy_3_gauge-unfilled-3_mg3gr31wly2a2-fill" data-item-order="-401260" transform="translate(511.5681457519531, 45.2025146484375)"><g id="sy_3_gauge-unfilled-3_mg3gr31wly2a2-fill-merged" stroke="none" fill="#4e8df3" fill-opacity="1"><g><path d="M37.077 167.801C9.402 140.126 2.156 98.022 18.986 62.688C35.817 27.353 73.076 6.449 112.004 10.499C150.932 14.549 183.09 42.676 192.286 80.718L160.198 88.475C154.286 64.02 133.613 45.939 108.588 43.335C83.563 40.732 59.611 54.17 48.791 76.885C37.971 99.6 42.629 126.666 60.42 144.457L37.077 167.801"></path></g></g></g><g id="g-root-sy_3_gauge-unfilled-3_mg3gr31wly2a2-stroke" data-item-order="-401260" transform="translate(511.5681457519531, 45.2025146484375)"><g id="sy_3_gauge-unfilled-3_mg3gr31wly2a2-stroke" fill="none" stroke-linecap="round" stroke-linejoin="round" stroke-miterlimit="4" stroke="#2c2c2c" stroke-width="1" stroke-opacity="0.9"><g><path d="M 37.076561 167.800613C 9.401814 140.125931 2.155584 98.02179 18.986341 62.687595C 35.817101 27.353399 73.076408 6.448612 112.004234 10.498777C 150.932053 14.548943 183.089951 42.676098 192.286423 80.718246L 160.197937 88.475159C 154.285522 64.019806 133.612564 45.938511 108.587738 43.33506C 83.562889 40.731606 59.61076 54.170341 48.791039 76.884972C 37.971321 99.599602 42.629383 126.666306 60.419937 144.45723L 37.076561 167.800613Z"></path></g></g></g><g id="g-root-sy_4_gauge-unfilled-4_4pfxcf1wly1hf-fill" data-item-order="-401256" transform="translate(758.0634765625, 45.2042236328125)"><g id="sy_4_gauge-unfilled-4_4pfxcf1wly1hf-fill-merged" stroke="none" fill="#5287dd" fill-opacity="1"><g><path d="M37.077 167.799C10.154 140.876 2.493 100.199 17.779 65.327C33.065 30.455 68.169 8.523 106.213 10.078C144.256 11.632 177.454 36.355 189.844 72.358L158.628 83.1C150.663 59.956 129.321 44.063 104.865 43.064C80.409 42.065 57.842 56.164 48.015 78.581C38.189 100.998 43.113 127.148 60.42 144.456L37.077 167.799"></path></g></g></g><g id="g-root-sy_4_gauge-unfilled-4_4pfxcf1wly1hf-stroke" data-item-order="-401256" transform="translate(758.0634765625, 45.2042236328125)"><g id="sy_4_gauge-unfilled-4_4pfxcf1wly1hf-stroke" fill="none" stroke-linecap="round" stroke-linejoin="round" stroke-miterlimit="4" stroke="#2c2c2c" stroke-width="1" stroke-opacity="0.9"><g><path d="M 37.076958 167.79892C 10.153625 140.875931 2.493103 100.198624 17.778936 65.326614C 33.06477 30.454596 68.169334 8.522993 106.2127 10.07756C 144.256058 11.632128 177.454193 36.354786 189.843872 72.357704L 158.628021 83.100082C 150.662827 59.955795 129.321243 44.063183 104.865082 43.064022C 80.408913 42.064861 57.842018 56.163578 48.015404 78.580978C 38.188786 100.998383 43.113014 127.147781 60.420334 144.455536L 37.076958 167.79892Z"></path></g></g></g><g id="g-root-sy_5_gauge-unfilled-5_1uuwz2n1wly230-fill" data-item-order="-401252" transform="translate(18.578208923339844, 309.30657958984375)"><g id="sy_5_gauge-unfilled-5_1uuwz2n1wly230-fill-merged" stroke="none" fill="#5d83c0" fill-opacity="1"><g><path d="M37.075 167.799C13.455 144.178 4.416 109.651 13.434 77.487C22.451 45.322 48.12 20.525 80.577 12.625C113.034 4.724 147.228 14.95 170.019 39.373L145.882 61.895C131.23 46.2 109.25 39.63 88.387 44.709C67.525 49.789 51.026 65.728 45.229 86.402C39.432 107.076 45.238 129.27 60.418 144.456L37.075 167.799"></path></g></g></g><g id="g-root-sy_5_gauge-unfilled-5_1uuwz2n1wly230-stroke" data-item-order="-401252" transform="translate(18.578208923339844, 309.30657958984375)"><g id="sy_5_gauge-unfilled-5_1uuwz2n1wly230-stroke" fill="none" stroke-linecap="round" stroke-linejoin="round" stroke-miterlimit="4" stroke="#2c2c2c" stroke-width="1" stroke-opacity="0.9"><g><path d="M 37.074909 167.79921C 13.454741 144.178207 4.416499 109.651062 13.433576 77.486534C 22.450653 45.322014 48.120003 20.524874 80.576912 12.624647C 113.033813 4.724421 147.228012 14.950373 170.018707 39.372673L 145.881912 61.89513C 131.229553 46.199768 109.24971 39.629665 88.387428 44.709171C 67.525154 49.788677 51.025768 65.727631 45.228634 86.401993C 39.431507 107.076355 45.238434 129.27005 60.418289 144.455826L 37.074909 167.79921Z"></path></g></g></g><g id="g-root-tx_804_1hjggpb1wly3nx-fill" data-item-order="0" transform="translate(83.158935546875, 186.06414794921875)"><g id="tx_804_1hjggpb1wly3nx-fill-merged" stroke="none" fill="#f4f4f4" fill-opacity="1"><g><text style="font: bold 18.8px Roboto, sans-serif; white-space: pre;" transform="translate(37.85624694824219, 21)" font-weight="bold" font-size="18.8px" font-family="Roboto, sans-serif"><tspan x="-25.86" y="10.6" dominant-baseline="ideographic">80.4%</tspan></text></g></g></g><g id="g-root-tx_804_1hjggpb1wly3nx-stroke" data-item-order="0" transform="translate(83.158935546875, 186.06414794921875)"></g><g id="g-root-tx_804_18hkplb1wlzh1j-fill" data-item-order="0" transform="translate(329.65478515625, 186.06414794921875)"><g id="tx_804_18hkplb1wlzh1j-fill-merged" stroke="none" fill="#f4f4f4" fill-opacity="1"><g><text style="font: bold 18.8px Roboto, sans-serif; white-space: pre;" transform="translate(37.85626220703125, 21)" font-weight="bold" font-size="18.8px" font-family="Roboto, sans-serif"><tspan x="-25.86" y="10.6" dominant-baseline="ideographic">80.4%</tspan></text></g></g></g><g id="g-root-tx_804_18hkplb1wlzh1j-stroke" data-item-order="0" transform="translate(329.65478515625, 186.06414794921875)"></g><g id="g-root-tx_783_dil18v1wlzi89-fill" data-item-order="0" transform="translate(576.1505126953125, 186.06414794921875)"><g id="tx_783_dil18v1wlzi89-fill-merged" stroke="none" fill="#f4f4f4" fill-opacity="1"><g><text style="font: bold 18.8px Roboto, sans-serif; white-space: pre;" transform="translate(37.85626220703125, 21)" font-weight="bold" font-size="18.8px" font-family="Roboto, sans-serif"><tspan x="-25.86" y="10.6" dominant-baseline="ideographic">78.3%</tspan></text></g></g></g><g id="g-root-tx_783_dil18v1wlzi89-stroke" data-item-order="0" transform="translate(576.1505126953125, 186.06414794921875)"></g><g id="g-root-tx_763_qp1qxb1wm0umj-fill" data-item-order="0" transform="translate(822.646484375, 186.06414794921875)"><g id="tx_763_qp1qxb1wm0umj-fill-merged" stroke="none" fill="#f4f4f4" fill-opacity="1"><g><text style="font: bold 18.8px Roboto, sans-serif; white-space: pre;" transform="translate(37.85626220703125, 21)" font-weight="bold" font-size="18.8px" font-family="Roboto, sans-serif"><tspan x="-25.86" y="10.6" dominant-baseline="ideographic">76.3%</tspan></text></g></g></g><g id="g-root-tx_763_qp1qxb1wm0umj-stroke" data-item-order="0" transform="translate(822.646484375, 186.06414794921875)"></g><g id="g-root-tx_brooklyn_1hbcakv1wlzh8m-fill" data-item-order="0" transform="translate(12.802680969238281, 243.28204345703125)"><g id="tx_brooklyn_1hbcakv1wlzh8m-fill-merged" stroke="none" fill="#f4f4f4" fill-opacity="1"><g><text style="font: bold 15px Roboto, sans-serif; white-space: pre;" transform="translate(108.2125015258789, 19)" font-weight="bold" font-size="15px" font-family="Roboto, sans-serif"><tspan x="-96.21" y="8.6" dominant-baseline="ideographic">Brooklyn % Closed ≤ 30 days</tspan></text></g></g></g><g id="g-root-tx_brooklyn_1hbcakv1wlzh8m-stroke" data-item-order="0" transform="translate(12.802680969238281, 243.28204345703125)"></g><g id="g-root-tx_statenis_v7zmhb1wlzhmo-fill" data-item-order="0" transform="translate(260.6610412597656, 243.28204345703125)"><g id="tx_statenis_v7zmhb1wlzhmo-fill-merged" stroke="none" fill="#f4f4f4" fill-opacity="1"><g><text style="font: bold 15px Roboto, sans-serif; white-space: pre;" transform="translate(106.85000610351562, 28)" font-weight="bold" font-size="15px" font-family="Roboto, sans-serif"><tspan x="-94.85" y="-0.4" dominant-baseline="ideographic">Staten Island % Closed ≤ 30 </tspan><tspan x="-17.68" y="17.6" dominant-baseline="ideographic">days</tspan></text></g></g></g><g id="g-root-tx_statenis_v7zmhb1wlzhmo-stroke" data-item-order="0" transform="translate(260.6610412597656, 243.28204345703125)"></g><g id="g-root-tx_bronxclo_1d3mykv1wlzhu2-fill" data-item-order="0" transform="translate(515.9755859375, 243.28204345703125)"><g id="tx_bronxclo_1d3mykv1wlzhu2-fill-merged" stroke="none" fill="#f4f4f4" fill-opacity="1"><g><text style="font: bold 15px Roboto, sans-serif; white-space: pre;" transform="translate(98.03125, 19)" font-weight="bold" font-size="15px" font-family="Roboto, sans-serif"><tspan x="-86.03" y="8.6" dominant-baseline="ideographic">Bronx % Closed ≤ 30 days</tspan></text></g></g></g><g id="g-root-tx_bronxclo_1d3mykv1wlzhu2-stroke" data-item-order="0" transform="translate(515.9755859375, 243.28204345703125)"></g><g id="g-root-tx_queenscl_hva5xr1wm0ufg-fill" data-item-order="0" transform="translate(756.615234375, 243.28204345703125)"><g id="tx_queenscl_hva5xr1wm0ufg-fill-merged" stroke="none" fill="#f4f4f4" fill-opacity="1"><g><text style="font: bold 15px Roboto, sans-serif; white-space: pre;" transform="translate(103.88751220703125, 19)" font-weight="bold" font-size="15px" font-family="Roboto, sans-serif"><tspan x="-91.89" y="8.6" dominant-baseline="ideographic">Queens % Closed ≤ 30 days</tspan></text></g></g></g><g id="g-root-tx_queenscl_hva5xr1wm0ufg-stroke" data-item-order="0" transform="translate(756.615234375, 243.28204345703125)"></g><g id="g-root-tx_manhatta_146r05r1wm0ume-fill" data-item-order="0" transform="translate(6.365180969238281, 507.38482666015625)"><g id="tx_manhatta_146r05r1wm0ume-fill-merged" stroke="none" fill="#f4f4f4" fill-opacity="1"><g><text style="font: bold 15px Roboto, sans-serif; white-space: pre;" transform="translate(114.6500015258789, 19)" font-weight="bold" font-size="15px" font-family="Roboto, sans-serif"><tspan x="-102.65" y="8.6" dominant-baseline="ideographic">Manhattan % Closed ≤ 30 days</tspan></text></g></g></g><g id="g-root-tx_manhatta_146r05r1wm0ume-stroke" data-item-order="0" transform="translate(6.365180969238281, 507.38482666015625)"></g><g id="g-root-tx_674_1ur64jz1wm0vm5-fill" data-item-order="0" transform="translate(83.158935546875, 450.16680908203125)"><g id="tx_674_1ur64jz1wm0vm5-fill-merged" stroke="none" fill="#f4f4f4" fill-opacity="1"><g><text style="font: bold 18.8px Roboto, sans-serif; white-space: pre;" transform="translate(37.85624694824219, 21)" font-weight="bold" font-size="18.8px" font-family="Roboto, sans-serif"><tspan x="-25.86" y="10.6" dominant-baseline="ideographic">67.4%</tspan></text></g></g></g><g id="g-root-tx_674_1ur64jz1wm0vm5-stroke" data-item-order="0" transform="translate(83.158935546875, 450.16680908203125)"></g><g id="g-root-tx_2024comp_hrjbf31wm2akn-fill" data-item-order="0" transform="translate(187.065185546875, 2)"><g id="tx_2024comp_hrjbf31wm2akn-fill-merged" stroke="none" fill="#f4f4f4" fill-opacity="1"><g><text style="font: bold 25px Roboto, sans-serif; white-space: pre;" transform="translate(303.6937561035156, 25)" font-weight="bold" font-size="25px" font-family="Roboto, sans-serif"><tspan x="-291.69" y="14.6" dominant-baseline="ideographic">2024 Complaints Closed Within 30 Days by Borough</tspan></text></g></g></g><g id="g-root-tx_2024comp_hrjbf31wm2akn-stroke" data-item-order="0" transform="translate(187.065185546875, 2)"></g></g></g><path id="wzpnxqn1yk3oqq" d="M65.283 12.757a.35.35 0 0 0 .584.157l5.203-5.141-6.183 3.523.396 1.461zm-2.216-11.7a.35.35 0 0 0-.522.305v3.111l3.276-1.868-2.754-1.548zm3.728 2.105l-4.25 2.421v2.445l6.391-3.644-2.141-1.222zm4.708 3.303a.35.35 0 0 0 0-.609l-1.592-.9-7.365 4.199v1.782a.35.35 0 0 0 .523.305l8.435-4.777z M44.542 2.513c0-.433.355-.783.792-.783s.792.35.792.783-.355.783-.792.783-.792-.35-.792-.783zm59.171 0c0-.433.355-.783.792-.783s.792.35.792.783-.355.783-.792.783-.792-.35-.792-.783zm-85.951 7.636h-1.27v-.487c-.276.201-.864.609-1.881.609-1.202 0-2.274-.794-2.137-2.078.118-1.106 1.153-1.584 1.848-1.727l2.17-.345c0-.539-.29-.956-1.064-1.006s-1.21.305-1.571 1.017l-1.124-.605c1.218-2.631 5.029-1.764 5.029.414v4.207zm-1.27-2.86c.006.396-.062 1.112-.819 1.59-.587.37-1.841.299-1.903-.395-.049-.555.461-.791.906-.898l1.816-.297zm72.662 2.86h-1.27v-.487c-.276.201-.864.609-1.881.609-1.202 0-2.274-.794-2.137-2.078.118-1.106 1.153-1.584 1.848-1.727l2.17-.345c0-.539-.29-.956-1.064-1.006s-1.21.305-1.571 1.017l-1.124-.605c1.218-2.631 5.029-1.764 5.029.414v4.207zm-1.27-2.86c.006.396-.062 1.112-.82 1.59-.587.37-1.841.299-1.903-.395-.049-.555.461-.791.906-.898l1.816-.297zM99.096 10.149H97.85v-8.45h1.246v4.895l2.68-2.559h1.738l-2.633 2.535 2.715 3.578h-1.556l-2.077-2.707-.867.844v1.863zm6.053-6.114h-1.255v6.113h1.255V4.035zm-59.2 0h-1.255v6.113h1.255V4.035zm5.584 6.113V1.697h1.255v2.695c.361-.346 1-.485 1.47-.485 1.452 0 2.477 1.082 2.457 2.448v3.792h-1.27v-3.68c0-.408-.214-1.339-1.315-1.339-.968 0-1.342.756-1.342 1.339v3.681h-1.255zm-4.76-4.894V4.039h.621a.45.45 0 0 0 .45-.45v-.855h1.251v1.305h1.309v1.215h-1.309v3.109c0 .293.105.664.648.664.365 0 .531-.035.736-.07v1.137s-.361.113-.857.113c-1.398 0-1.777-1.051-1.777-1.788V5.254h-1.071zM36.528 4.039h-1.394l2.191 6.106h1.125l1.234-3.918 1.238 3.918h1.129l2.188-6.106h-1.383l-1.359 3.93-1.256-3.93h-1.124l-1.242 3.957-1.348-3.957zM26.212 7.141c-.02 1.566 1.187 3.129 3.223 3.129 1.566 0 2.383-.918 2.734-1.719L31.172 8c-.315.399-.801 1.094-1.738 1.094-1.145 0-1.825-.781-1.891-1.52h4.625c.074-.284.148-.995-.03-1.559-.336-1.064-1.221-2.102-2.839-2.102s-3.088 1.152-3.088 3.227zm1.363-.75h3.348c-.055-.43-.566-1.301-1.623-1.301a1.79 1.79 0 0 0-1.725 1.301zm-8.758.75c.038 1.758 1.277 3.133 3.145 3.133 1.074 0 1.723-.477 1.961-.672v.547h1.242V1.703h-1.258v2.888c-.414-.36-1.062-.68-1.93-.68-1.91 0-3.198 1.473-3.16 3.23zm1.309-.08c0 1.119.723 1.978 1.836 1.978a1.88 1.88 0 0 0 1.94-1.904c0-1.371-1.011-1.99-1.972-1.99s-1.805.798-1.805 1.916zm76.683-.028C96.771 5.275 95.532 3.9 93.664 3.9c-1.074 0-1.723.477-1.961.672v-.547h-1.242v8.22h1.258V9.583c.414.36 1.063.68 1.93.68 1.91 0 3.198-1.473 3.16-3.23zm-1.309.08c0-1.119-.723-1.978-1.836-1.978a1.88 1.88 0 0 0-1.94 1.904c0 1.371 1.011 1.99 1.972 1.99S95.5 8.231 95.5 7.113zM106.441 10.173V4.036h1.254v.382c.361-.346 1-.485 1.47-.485 1.452 0 2.477 1.082 2.457 2.448v3.792h-1.27V6.492c0-.408-.214-1.339-1.315-1.339-.969 0-1.342.756-1.342 1.339v3.681h-1.254zm-30.383-.021V1.824h1.084l4.215 5.777V1.824h1.32v8.328h-1.094l-4.207-5.796v5.796h-1.319zM5.24 10.149H4V2.377h1.014l2.664 3.597 2.654-3.592h1.03v7.766h-1.256V4.762L7.678 8.068 5.24 4.742v5.407z" transform="translate(836.40576171875, 513.3848266601562)" fill="#ababab88" stroke="none"></path></svg>