<?xml version="1.0" encoding="utf-8" standalone="yes"?>
<!DOCTYPE svg PUBLIC "-//W3C//DTD SVG 1.1//EN" "http://www.w3.org/Graphics/SVG/1.1/DTD/svg11.dtd">
<svg style="fill:none;stroke:none;fill-rule:evenodd;clip-rule:evenodd;stroke-linecap:round;stroke-linejoin:round;stroke-miterlimit:1.5;" version="1.1" xmlns="http://www.w3.org/2000/svg" xmlns:xlink="http://www.w3.org/1999/xlink" width="842" height="726" viewBox="0 0 842 726"><style class="text-font-style fontImports" data-font-family="Roboto">@import url(https://fonts.googleapis.com/css2?family=Roboto:wght@400;700&amp;amp;display=block);</style><g id="items" style="isolation: isolate"><g id="blend" style="mix-blend-mode: normal"><g id="g-root-cp_6_g-6_dbp76n1x64b9c-fill" data-item-order="999953376" transform="translate(14, 596)"><g id="cp_6_g-6_dbp76n1x64b9c-fill-merged" stroke="none" fill="#3e4e69" fill-opacity="1"><g><path d="M132.628 10C129.409 10 126.504 11.929 125.255 14.896L101.676 70.896C99.455 76.169 103.327 82 109.049 82 H649.551C655.272 82 659.144 76.169 656.924 70.896L633.345 14.896C632.096 11.929 629.191 10 625.972 10 H132.628"></path></g></g><g id="cp_6_g-6_dbp76n1x64b9c-fill-merged" stroke="none" fill="#3e4e69" fill-opacity="1"><g><path d="M10 46C10 65.882 26.118 82 46 82C65.882 82 82 65.882 82 46C82 26.118 65.882 10 46 10C26.118 10 10 26.118 10 46"></path></g></g></g><g id="g-root-cp_6_g-6_dbp76n1x64b9c-stroke" data-item-order="999953376" transform="translate(14, 596)"><g id="cp_6_g-6_dbp76n1x64b9c-stroke" fill="none" stroke-linecap="round" stroke-linejoin="round" stroke-miterlimit="4" stroke="#f4f4f4" stroke-width="1" stroke-opacity="1"><g><path d="M 625.599586 82.000015L 649.550986 82.000015C 655.272386 82.000015 659.144286 76.168615 656.923986 70.895515L 633.345086 14.895515C 632.095986 11.929015 629.190786 10.000015 625.971986 10.000015L 625.599586 10.000015M 133 10L 625.600067 10M 133 82L 625.600067 82M 133.000016 10.000015L 132.627616 10.000015C 129.408816 10.000015 126.503616 11.929015 125.254516 14.895515L 101.675516 70.895515C 99.455316 76.168615 103.327216 82.000015 109.048616 82.000015L 133.000016 82.000015"></path></g></g><g id="cp_6_g-6_dbp76n1x64b9c-stroke" fill="none" stroke-linecap="round" stroke-linejoin="round" stroke-miterlimit="4" stroke="#f4f4f4" stroke-width="1" stroke-opacity="1"><g><path d="M 10 46C 10 65.882251 26.117749 82 46 82C 65.882251 82 82 65.882251 82 46C 82 26.117749 65.882251 10 46 10C 26.117749 10 10 26.117749 10 46"></path></g></g></g><g id="g-root-cp_5_g-5_v2z7of1x648w7-fill" data-item-order="999959136" transform="translate(54, 500)"><g id="cp_5_g-5_v2z7of1x648w7-fill-merged" stroke="none" fill="#3e4e69" fill-opacity="1"><g><path d="M132.628 10C129.409 10 126.504 11.929 125.255 14.896L101.676 70.896C99.455 76.169 103.327 82 109.049 82 H569.551C575.273 82 579.145 76.169 576.924 70.896L553.346 14.896C552.096 11.929 549.191 10 545.972 10 H132.628"></path></g></g><g id="cp_5_g-5_v2z7of1x648w7-fill-merged" stroke="none" fill="#3e4e69" fill-opacity="1"><g><path d="M10 46C10 65.882 26.118 82 46 82C65.882 82 82 65.882 82 46C82 26.118 65.882 10 46 10C26.118 10 10 26.118 10 46"></path></g></g></g><g id="g-root-cp_5_g-5_v2z7of1x648w7-stroke" data-item-order="999959136" transform="translate(54, 500)"><g id="cp_5_g-5_v2z7of1x648w7-stroke" fill="none" stroke-linecap="round" stroke-linejoin="round" stroke-miterlimit="4" stroke="#f4f4f4" stroke-width="1" stroke-opacity="1"><g><path d="M 545.600067 82.000015L 569.551467 82.000015C 575.272867 82.000015 579.144767 76.168615 576.924467 70.895515L 553.345567 14.895515C 552.096467 11.929015 549.191267 10.000015 545.972467 10.000015L 545.600067 10.000015M 133 10L 545.600067 10M 133 82L 545.600067 82M 133.000017 10.000015L 132.627617 10.000015C 129.408817 10.000015 126.503617 11.929015 125.254517 14.895515L 101.675517 70.895515C 99.455317 76.168615 103.327217 82.000015 109.048617 82.000015L 133.000017 82.000015"></path></g></g><g id="cp_5_g-5_v2z7of1x648w7-stroke" fill="none" stroke-linecap="round" stroke-linejoin="round" stroke-miterlimit="4" stroke="#f4f4f4" stroke-width="1" stroke-opacity="1"><g><path d="M 10 46C 10 65.882251 26.117749 82 46 82C 65.882251 82 82 65.882251 82 46C 82 26.117749 65.882251 10 46 10C 26.117749 10 10 26.117749 10 46"></path></g></g></g><g id="g-root-cp_4_g-4_1lz9cpr1x62ubq-fill" data-item-order="999964896" transform="translate(93.99998474121094, 404)"><g id="cp_4_g-4_1lz9cpr1x62ubq-fill-merged" stroke="none" fill="#3e4e69" fill-opacity="1"><g><path d="M132.628 10C129.409 10 126.504 11.929 125.255 14.896L101.676 70.896C99.455 76.169 103.327 82 109.049 82 H489.551C495.273 82 499.145 76.169 496.924 70.896L473.346 14.896C472.096 11.929 469.191 10 465.972 10 H132.628"></path></g></g><g id="cp_4_g-4_1lz9cpr1x62ubq-fill-merged" stroke="none" fill="#3e4e69" fill-opacity="1"><g><path d="M10 46C10 65.882 26.118 82 46 82C65.882 82 82 65.882 82 46C82 26.118 65.882 10 46 10C26.118 10 10 26.118 10 46"></path></g></g></g><g id="g-root-cp_4_g-4_1lz9cpr1x62ubq-stroke" data-item-order="999964896" transform="translate(93.99998474121094, 404)"><g id="cp_4_g-4_1lz9cpr1x62ubq-stroke" fill="none" stroke-linecap="round" stroke-linejoin="round" stroke-miterlimit="4" stroke="#f4f4f4" stroke-width="1" stroke-opacity="1"><g><path d="M 465.600082 82.000015L 489.551482 82.000015C 495.272882 82.000015 499.144782 76.168615 496.924482 70.895515L 473.345582 14.895515C 472.096482 11.929015 469.191282 10.000015 465.972482 10.000015L 465.600082 10.000015M 133.000015 10.000015L 465.600082 10.000015M 133.000015 82.000015L 465.600082 82.000015M 133.000033 10.000015L 132.627633 10.000015C 129.408833 10.000015 126.503633 11.929015 125.254533 14.895515L 101.675533 70.895515C 99.455333 76.168615 103.327233 82.000015 109.048633 82.000015L 133.000033 82.000015"></path></g></g><g id="cp_4_g-4_1lz9cpr1x62ubq-stroke" fill="none" stroke-linecap="round" stroke-linejoin="round" stroke-miterlimit="4" stroke="#f4f4f4" stroke-width="1" stroke-opacity="1"><g><path d="M 10.000015 46C 10.000015 65.882251 26.117764 82 46.000015 82C 65.882266 82 82.000015 65.882251 82.000015 46C 82.000015 26.117749 65.882266 10 46.000015 10C 26.117764 10 10.000015 26.117749 10.000015 46"></path></g></g></g><g id="g-root-cp_3_g-3_8zc0v1x62w3p-fill" data-item-order="999970716" transform="translate(133.99998474121094, 308)"><g id="cp_3_g-3_8zc0v1x62w3p-fill-merged" stroke="none" fill="#3e4e69" fill-opacity="1"><g><path d="M132.626 10C129.408 10 126.502 11.929 125.253 14.896L101.674 70.896C99.454 76.169 103.326 82 109.047 82 H408.709C414.431 82 418.303 76.169 416.082 70.896L392.321 14.463C391.183 11.759 388.534 10 385.6 10 H132.626"></path></g></g><g id="cp_3_g-3_8zc0v1x62w3p-fill-merged" stroke="none" fill="#3e4e69" fill-opacity="1"><g><path d="M10 46C10 65.882 26.118 82 46 82C65.882 82 82 65.882 82 46C82 26.118 65.882 10 46 10C26.118 10 10 26.118 10 46"></path></g></g></g><g id="g-root-cp_3_g-3_8zc0v1x62w3p-stroke" data-item-order="999970716" transform="translate(133.99998474121094, 308)"><g id="cp_3_g-3_8zc0v1x62w3p-stroke" fill="none" stroke-linecap="round" stroke-linejoin="round" stroke-miterlimit="4" stroke="#f4f4f4" stroke-width="1" stroke-opacity="1"><g><path d="M 385.600082 10C 388.534182 10 391.182582 11.7585 392.321182 14.4627L 416.082482 70.8955C 418.302682 76.1686 414.430782 82 408.709382 82L 385.600082 82M 132.915832 82L 385.601333 82M 385.601333 10L 132.915832 10L 132.628944 10M 132.998878 10L 132.626478 10C 129.407678 10 126.502378 11.929 125.253378 14.8955L 101.674378 70.8955C 99.454178 76.1686 103.326078 82 109.047478 82L 132.998878 82"></path></g></g><g id="cp_3_g-3_8zc0v1x62w3p-stroke" fill="none" stroke-linecap="round" stroke-linejoin="round" stroke-miterlimit="4" stroke="#f4f4f4" stroke-width="1" stroke-opacity="1"><g><path d="M 10.000015 46C 10.000015 65.882251 26.117764 82 46.000015 82C 65.882266 82 82.000015 65.882251 82.000015 46C 82.000015 26.117749 65.882266 10 46.000015 10C 26.117764 10 10.000015 26.117749 10.000015 46"></path></g></g></g><g id="g-root-cp_2_g-2_dkfue71x62uis-fill" data-item-order="999976537" transform="translate(175, 212)"><g id="cp_2_g-2_dkfue71x62uis-fill-merged" stroke="none" fill="#3e4e69" fill-opacity="1"><g><path d="M327.868 82C333.589 82 337.461 76.169 335.241 70.896L311.662 14.896C310.413 11.929 307.819 10 304.6 10 H132C128.779 10 126.502 11.929 125.253 14.896L101.674 70.896C99.454 76.169 103.326 82 109.047 82 H327.868"></path></g></g><g id="cp_2_g-2_dkfue71x62uis-fill-merged" stroke="none" fill="#3e4e69" fill-opacity="1"><g><path d="M10 46C10 65.882 26.118 82 46 82C65.882 82 82 65.882 82 46C82 26.118 65.882 10 46 10C26.118 10 10 26.118 10 46"></path></g></g></g><g id="g-root-cp_2_g-2_dkfue71x62uis-stroke" data-item-order="999976537" transform="translate(175, 212)"><g id="cp_2_g-2_dkfue71x62uis-stroke" fill="none" stroke-linecap="round" stroke-linejoin="round" stroke-miterlimit="4" stroke="#f4f4f4" stroke-width="1" stroke-opacity="1"><g><path d="M 131.998063 10C 128.779263 10 126.502463 11.929 125.253363 14.8955L 101.674363 70.8956C 99.454163 76.1686 103.326063 82 109.047463 82L 131.998063 82M 304.600067 10L 132 10M 304.600067 82L 132 82M 304.600067 10C 307.818767 10 310.413067 11.929 311.662167 14.8955L 335.241167 70.8956C 337.461367 76.1686 333.589467 82 327.867967 82L 304.600067 82"></path></g></g><g id="cp_2_g-2_dkfue71x62uis-stroke" fill="none" stroke-linecap="round" stroke-linejoin="round" stroke-miterlimit="4" stroke="#f4f4f4" stroke-width="1" stroke-opacity="1"><g><path d="M 10 46.000015C 10 65.882266 26.117749 82.000015 46 82.000015C 65.882251 82.000015 82 65.882266 82 46.000015C 82 26.117764 65.882251 10.000015 46 10.000015C 26.117749 10.000015 10 26.117764 10 46.000015"></path></g></g></g><g id="g-root-cp_1_g-1_vb3dsv1x62vbf-fill" data-item-order="999982358" transform="translate(215, 116)"><g id="cp_1_g-1_vb3dsv1x62vbf-fill-merged" stroke="none" fill="#3e4e69" fill-opacity="1"><g><path d="M131.999 10C129.16 10 126.598 11.701 125.497 14.317L101.674 70.896C99.454 76.169 103.326 82 109.047 82 H247.025C252.747 82 256.618 76.169 254.398 70.896L230.371 13.832C229.394 11.51 227.12 10 224.6 10 H132"></path></g></g><g id="cp_1_g-1_vb3dsv1x62vbf-fill-merged" stroke="none" fill="#3e4e69" fill-opacity="1"><g><path d="M10 46C10 65.882 26.118 82 46 82C65.882 82 82 65.882 82 46C82 26.118 65.882 10 46 10C26.118 10 10 26.118 10 46"></path></g></g></g><g id="g-root-cp_1_g-1_vb3dsv1x62vbf-stroke" data-item-order="999982358" transform="translate(215, 116)"><g id="cp_1_g-1_vb3dsv1x62vbf-stroke" fill="none" stroke-linecap="round" stroke-linejoin="round" stroke-miterlimit="4" stroke="#f4f4f4" stroke-width="1" stroke-opacity="1"><g><path d="M 224.600067 10C 227.119567 10 229.393767 11.51 230.371467 13.8321L 254.398167 70.8956C 256.618467 76.1686 252.746567 82 247.025067 82L 224.600067 82M 224.600067 10L 132 10M 224.600067 82L 132 82M 131.998863 10C 129.160363 10 126.598363 11.7011 125.496863 14.3171L 101.674363 70.8955C 99.454163 76.1686 103.326063 82 109.047463 82L 131.998863 82"></path></g></g><g id="cp_1_g-1_vb3dsv1x62vbf-stroke" fill="none" stroke-linecap="round" stroke-linejoin="round" stroke-miterlimit="4" stroke="#f4f4f4" stroke-width="1" stroke-opacity="1"><g><path d="M 10 46C 10 65.882251 26.117749 82 46 82C 65.882251 82 82 65.882251 82 46C 82 26.117749 65.882251 10 46 10C 26.117749 10 10 26.117749 10 46"></path></g></g></g><g id="g-root-tx_nyclocal_v5wf1x649oh-fill" data-item-order="1000000000" transform="translate(245.71249389648438, 38)"><g id="tx_nyclocal_v5wf1x649oh-fill-merged" stroke="none" fill="#f4f4f4" fill-opacity="1"><g><text style="font: bold 25px Roboto, sans-serif; white-space: pre;" transform="translate(220.28750610351562, 25)" font-weight="bold" font-size="25px" font-family="Roboto, sans-serif"><tspan x="-208.29" y="14.6" dominant-baseline="ideographic">NYC Local-Vendor Revenue Potential</tspan></text></g></g></g><g id="g-root-tx_nyclocal_v5wf1x649oh-stroke" data-item-order="1000000000" transform="translate(245.71249389648438, 38)"></g><g id="g-root-tx_nyctotal_magkv31x64av6-fill" data-item-order="1000000000" transform="translate(337, 143)"><g id="tx_nyctotal_magkv31x64av6-fill-merged" stroke="none" fill="#f4f4f4" fill-opacity="1"><g><text style="font: bold 15px Roboto, sans-serif; white-space: pre;" transform="translate(56.300018310546875, 19)" font-weight="bold" font-size="15px" font-family="Roboto, sans-serif"><tspan x="-44.3" y="8.6" dominant-baseline="ideographic">Staten Island</tspan></text></g></g></g><g id="g-root-tx_nyctotal_magkv31x64av6-stroke" data-item-order="1000000000" transform="translate(337, 143)"></g><g id="g-root-tx_046m116m_3zmhr1x62vi8-fill" data-item-order="1000000000" transform="translate(477.60003662109375, 146)"><g id="tx_046m116m_3zmhr1x62vi8-fill-merged" stroke="none" fill="#f4f4f4" fill-opacity="1"><g><text style="font: 15px Roboto, sans-serif; white-space: pre;" transform="translate(10, 28)" font-size="15px" font-family="Roboto, sans-serif"><tspan x="2" y="-0.4" dominant-baseline="ideographic">$0.46M - $1.16M </tspan><tspan x="2" y="17.6" dominant-baseline="ideographic">revenue potential</tspan></text></g></g></g><g id="g-root-tx_046m116m_3zmhr1x62vi8-stroke" data-item-order="1000000000" transform="translate(477.60003662109375, 146)"></g><g id="g-root-tx_brooklyn_147cv4v1x67406-fill" data-item-order="1000000000" transform="translate(345.0062561035156, 239)"><g id="tx_brooklyn_147cv4v1x67406-fill-merged" stroke="none" fill="#f4f4f4" fill-opacity="1"><g><text style="font: bold 15px Roboto, sans-serif; white-space: pre;" transform="translate(48.29376220703125, 19)" font-weight="bold" font-size="15px" font-family="Roboto, sans-serif"><tspan x="-36.29" y="8.6" dominant-baseline="ideographic">Manhattan</tspan></text></g></g></g><g id="g-root-tx_brooklyn_147cv4v1x67406-stroke" data-item-order="1000000000" transform="translate(345.0062561035156, 239)"></g><g id="g-root-tx_099m248m_8wi9b31x602rp-fill" data-item-order="1000000000" transform="translate(517.6000366210938, 242)"><g id="tx_099m248m_8wi9b31x602rp-fill-merged" stroke="none" fill="#f4f4f4" fill-opacity="1"><g><text style="font: 15px Roboto, sans-serif; white-space: pre;" transform="translate(10, 28)" font-size="15px" font-family="Roboto, sans-serif"><tspan x="2" y="-0.4" dominant-baseline="ideographic">$0.99M - $2.48M </tspan><tspan x="2" y="17.6" dominant-baseline="ideographic">revenue potential</tspan></text></g></g></g><g id="g-root-tx_099m248m_8wi9b31x602rp-stroke" data-item-order="1000000000" transform="translate(517.6000366210938, 242)"></g><g id="g-root-tx_queens_18kok2n1x5q8lh-fill" data-item-order="1000000000" transform="translate(346.8625183105469, 335)"><g id="tx_queens_18kok2n1x5q8lh-fill-merged" stroke="none" fill="#f4f4f4" fill-opacity="1"><g><text style="font: bold 15px Roboto, sans-serif; white-space: pre;" transform="translate(46.4375, 19)" font-weight="bold" font-size="15px" font-family="Roboto, sans-serif"><tspan x="-34.44" y="8.6" dominant-baseline="ideographic">The Bronx</tspan></text></g></g></g><g id="g-root-tx_queens_18kok2n1x5q8lh-stroke" data-item-order="1000000000" transform="translate(346.8625183105469, 335)"></g><g id="g-root-tx_124m309m_djtggv1x5ufpc-fill" data-item-order="1000000000" transform="translate(557.6000366210938, 338)"><g id="tx_124m309m_djtggv1x5ufpc-fill-merged" stroke="none" fill="#f4f4f4" fill-opacity="1"><g><text style="font: 15px Roboto, sans-serif; white-space: pre;" transform="translate(10, 28)" font-size="15px" font-family="Roboto, sans-serif"><tspan x="2" y="-0.4" dominant-baseline="ideographic">$1.24M - $3.09M </tspan><tspan x="2" y="17.6" dominant-baseline="ideographic">revenue potential</tspan></text></g></g></g><g id="g-root-tx_124m309m_djtggv1x5ufpc-stroke" data-item-order="1000000000" transform="translate(557.6000366210938, 338)"></g><g id="g-root-tx_bronx_1ur5llr1x5rmrn-fill" data-item-order="1000000000" transform="translate(355.7687683105469, 431)"><g id="tx_bronx_1ur5llr1x5rmrn-fill-merged" stroke="none" fill="#f4f4f4" fill-opacity="1"><g><text style="font: bold 15px Roboto, sans-serif; white-space: pre;" transform="translate(37.53125, 19)" font-weight="bold" font-size="15px" font-family="Roboto, sans-serif"><tspan x="-25.53" y="8.6" dominant-baseline="ideographic">Queens</tspan></text></g></g></g><g id="g-root-tx_bronx_1ur5llr1x5rmrn-stroke" data-item-order="1000000000" transform="translate(355.7687683105469, 431)"></g><g id="g-root-tx_171m429m_18gxpjz1x5roqq-fill" data-item-order="1000000000" transform="translate(598.6000366210938, 434)"><g id="tx_171m429m_18gxpjz1x5roqq-fill-merged" stroke="none" fill="#f4f4f4" fill-opacity="1"><g><text style="font: 15px Roboto, sans-serif; white-space: pre;" transform="translate(10, 28)" font-size="15px" font-family="Roboto, sans-serif"><tspan x="2" y="-0.4" dominant-baseline="ideographic">$1.71M - $4.29M </tspan><tspan x="2" y="17.6" dominant-baseline="ideographic">revenue potential</tspan></text></g></g></g><g id="g-root-tx_171m429m_18gxpjz1x5roqq-stroke" data-item-order="1000000000" transform="translate(598.6000366210938, 434)"></g><g id="g-root-tx_manhatta_qpnp271x5vv9d-fill" data-item-order="1000000000" transform="translate(351.4375, 527)"><g id="tx_manhatta_qpnp271x5vv9d-fill-merged" stroke="none" fill="#f4f4f4" fill-opacity="1"><g><text style="font: bold 15px Roboto, sans-serif; white-space: pre;" transform="translate(41.862518310546875, 19)" font-weight="bold" font-size="15px" font-family="Roboto, sans-serif"><tspan x="-29.86" y="8.6" dominant-baseline="ideographic">Brooklyn</tspan></text></g></g></g><g id="g-root-tx_manhatta_qpnp271x5vv9d-stroke" data-item-order="1000000000" transform="translate(351.4375, 527)"></g><g id="g-root-tx_173m432m_qqa65b1x5q9sc-fill" data-item-order="1000000000" transform="translate(638.6000366210938, 530)"><g id="tx_173m432m_qqa65b1x5q9sc-fill-merged" stroke="none" fill="#f4f4f4" fill-opacity="1"><g><text style="font: 15px Roboto, sans-serif; white-space: pre;" transform="translate(10, 28)" font-size="15px" font-family="Roboto, sans-serif"><tspan x="2" y="-0.4" dominant-baseline="ideographic">$1.73M - $4.32M </tspan><tspan x="2" y="17.6" dominant-baseline="ideographic">revenue potential</tspan></text></g></g></g><g id="g-root-tx_173m432m_qqa65b1x5q9sc-stroke" data-item-order="1000000000" transform="translate(638.6000366210938, 530)"></g><g id="g-root-tx_statenis_v63o9r1x603ye-fill" data-item-order="1000000000" transform="translate(348.2125244140625, 623)"><g id="tx_statenis_v63o9r1x603ye-fill-merged" stroke="none" fill="#f4f4f4" fill-opacity="1"><g><text style="font: bold 15px Roboto, sans-serif; white-space: pre;" transform="translate(45.087493896484375, 19)" font-weight="bold" font-size="15px" font-family="Roboto, sans-serif"><tspan x="-33.09" y="8.6" dominant-baseline="ideographic">NYC Total</tspan></text></g></g></g><g id="g-root-tx_statenis_v63o9r1x603ye-stroke" data-item-order="1000000000" transform="translate(348.2125244140625, 623)"></g><g id="g-root-tx_618m1544_4l1zmn1x6728d-fill" data-item-order="1000000000" transform="translate(678.6000366210938, 626)"><g id="tx_618m1544_4l1zmn1x6728d-fill-merged" stroke="none" fill="#f4f4f4" fill-opacity="1"><g><text style="font: 15px Roboto, sans-serif; white-space: pre;" transform="translate(10, 28)" font-size="15px" font-family="Roboto, sans-serif"><tspan x="2" y="-0.4" dominant-baseline="ideographic">$6.18M - $15.44M </tspan><tspan x="2" y="17.6" dominant-baseline="ideographic">revenue potential</tspan></text></g></g></g><g id="g-root-tx_618m1544_4l1zmn1x6728d-stroke" data-item-order="1000000000" transform="translate(678.6000366210938, 626)"></g></g></g><path id="wv8lnsv1vi8361" d="M65.283 12.757a.35.35 0 0 0 .584.157l5.203-5.141-6.183 3.523.396 1.461zm-2.216-11.7a.35.35 0 0 0-.522.305v3.111l3.276-1.868-2.754-1.548zm3.728 2.105l-4.25 2.421v2.445l6.391-3.644-2.141-1.222zm4.708 3.303a.35.35 0 0 0 0-.609l-1.592-.9-7.365 4.199v1.782a.35.35 0 0 0 .523.305l8.435-4.777z M44.542 2.513c0-.433.355-.783.792-.783s.792.35.792.783-.355.783-.792.783-.792-.35-.792-.783zm59.171 0c0-.433.355-.783.792-.783s.792.35.792.783-.355.783-.792.783-.792-.35-.792-.783zm-85.951 7.636h-1.27v-.487c-.276.201-.864.609-1.881.609-1.202 0-2.274-.794-2.137-2.078.118-1.106 1.153-1.584 1.848-1.727l2.17-.345c0-.539-.29-.956-1.064-1.006s-1.21.305-1.571 1.017l-1.124-.605c1.218-2.631 5.029-1.764 5.029.414v4.207zm-1.27-2.86c.006.396-.062 1.112-.819 1.59-.587.37-1.841.299-1.903-.395-.049-.555.461-.791.906-.898l1.816-.297zm72.662 2.86h-1.27v-.487c-.276.201-.864.609-1.881.609-1.202 0-2.274-.794-2.137-2.078.118-1.106 1.153-1.584 1.848-1.727l2.17-.345c0-.539-.29-.956-1.064-1.006s-1.21.305-1.571 1.017l-1.124-.605c1.218-2.631 5.029-1.764 5.029.414v4.207zm-1.27-2.86c.006.396-.062 1.112-.82 1.59-.587.37-1.841.299-1.903-.395-.049-.555.461-.791.906-.898l1.816-.297zM99.096 10.149H97.85v-8.45h1.246v4.895l2.68-2.559h1.738l-2.633 2.535 2.715 3.578h-1.556l-2.077-2.707-.867.844v1.863zm6.053-6.114h-1.255v6.113h1.255V4.035zm-59.2 0h-1.255v6.113h1.255V4.035zm5.584 6.113V1.697h1.255v2.695c.361-.346 1-.485 1.47-.485 1.452 0 2.477 1.082 2.457 2.448v3.792h-1.27v-3.68c0-.408-.214-1.339-1.315-1.339-.968 0-1.342.756-1.342 1.339v3.681h-1.255zm-4.76-4.894V4.039h.621a.45.45 0 0 0 .45-.45v-.855h1.251v1.305h1.309v1.215h-1.309v3.109c0 .293.105.664.648.664.365 0 .531-.035.736-.07v1.137s-.361.113-.857.113c-1.398 0-1.777-1.051-1.777-1.788V5.254h-1.071zM36.528 4.039h-1.394l2.191 6.106h1.125l1.234-3.918 1.238 3.918h1.129l2.188-6.106h-1.383l-1.359 3.93-1.256-3.93h-1.124l-1.242 3.957-1.348-3.957zM26.212 7.141c-.02 1.566 1.187 3.129 3.223 3.129 1.566 0 2.383-.918 2.734-1.719L31.172 8c-.315.399-.801 1.094-1.738 1.094-1.145 0-1.825-.781-1.891-1.52h4.625c.074-.284.148-.995-.03-1.559-.336-1.064-1.221-2.102-2.839-2.102s-3.088 1.152-3.088 3.227zm1.363-.75h3.348c-.055-.43-.566-1.301-1.623-1.301a1.79 1.79 0 0 0-1.725 1.301zm-8.758.75c.038 1.758 1.277 3.133 3.145 3.133 1.074 0 1.723-.477 1.961-.672v.547h1.242V1.703h-1.258v2.888c-.414-.36-1.062-.68-1.93-.68-1.91 0-3.198 1.473-3.16 3.23zm1.309-.08c0 1.119.723 1.978 1.836 1.978a1.88 1.88 0 0 0 1.94-1.904c0-1.371-1.011-1.99-1.972-1.99s-1.805.798-1.805 1.916zm76.683-.028C96.771 5.275 95.532 3.9 93.664 3.9c-1.074 0-1.723.477-1.961.672v-.547h-1.242v8.22h1.258V9.583c.414.36 1.063.68 1.93.68 1.91 0 3.198-1.473 3.16-3.23zm-1.309.08c0-1.119-.723-1.978-1.836-1.978a1.88 1.88 0 0 0-1.94 1.904c0 1.371 1.011 1.99 1.972 1.99S95.5 8.231 95.5 7.113zM106.441 10.173V4.036h1.254v.382c.361-.346 1-.485 1.47-.485 1.452 0 2.477 1.082 2.457 2.448v3.792h-1.27V6.492c0-.408-.214-1.339-1.315-1.339-.969 0-1.342.756-1.342 1.339v3.681h-1.254zm-30.383-.021V1.824h1.084l4.215 5.777V1.824h1.32v8.328h-1.094l-4.207-5.796v5.796h-1.319zM5.24 10.149H4V2.377h1.014l2.664 3.597 2.654-3.592h1.03v7.766h-1.256V4.762L7.678 8.068 5.24 4.742v5.407z" transform="translate(17, 695)" fill="#ababab88" stroke="none"></path></svg>